<?xml version="1.0" encoding="utf-8"?>
<!-- Generator: Adobe Illustrator 26.4.1, SVG Export Plug-In . SVG Version: 6.00 Build 0)  -->
<svg version="1.1" id="レイヤー_1" xmlns="http://www.w3.org/2000/svg" xmlns:xlink="http://www.w3.org/1999/xlink" x="0px"
	 y="0px" viewBox="0 0 1000 315.6" style="enable-background:new 0 0 1000 315.6;" xml:space="preserve">
<style type="text/css">
	.st0{fill:#FFFFFF;}
</style>
<g>
	<path class="st0" d="M785.2,312.2c-0.1,0.1-0.9,0.8-0.9,1.5l1.4,1.4c1.2-0.9,0.2-0.9,0.1-5.4L785.2,312.2z"/>
	<path class="st0" d="M798.3,182c1.4,0.6,1,3.4,0.5,4.9c1.6,0.4,2.5-2,3.3-2.8l-0.4-1.1C801.5,180.5,799.5,180.4,798.3,182z"/>
	<path class="st0" d="M770.9,217.7c1.6-0.1,1.9-2.8,2.4-4.9l-2.5-0.6L770.9,217.7z"/>
	<path class="st0" d="M130.3,172.4c-0.3,0.2-1.4,0.8-2.2,1.3c-0.6-0.6-1.4-1.1-2.1-2.1c0,1.4-0.9,3.4-0.8,4.8c0,1,0.9,1.5,1,2.5
		c0.7-0.6,1.4-1.2,2.1-1.8c0,1.5-0.4,2.8-1,4.2c0.7,0.1,1.4,0.2,2.2,0.4c0.1-1.6,0.4-4.6,0-5.9c-0.1-0.3-0.2-0.5-0.3-0.7
		c0.8-0.6,1.6-1.3,2.3-2.1C131.6,172.6,130.6,172.2,130.3,172.4z"/>
	<path class="st0" d="M128.1,166.4c0-0.7,1.1-1.2,1.3-1.9c0.4-0.9,0-1.8,0.5-2.8c-1.6,1.5-2.7,3-3.2,5
		C127.1,166.6,127.6,166.5,128.1,166.4z"/>
	<path class="st0" d="M96.1,194.2c-0.9,0.8-1.3,1.3-0.1,2C96.9,195.5,97.6,195,96.1,194.2z"/>
	<path class="st0" d="M122,254.5c-1.2,0.4-1.4,1.7-1.4,2.8l-0.8,1.5c0,0,0.4,2.2,2.1,1.4c1.1-0.5,0.6-2.2,0.1-3.4
		c0.5-0.3,1-0.6,1.5-0.9C124,255.6,123.4,254,122,254.5z"/>
	<path class="st0" d="M995.1,168.2c0-1.1-0.8-1.7-1.5-2.3c-0.4-0.3-0.7-0.4-1-0.3c0,0,0,0,0,0c0,0,0-0.1,0-0.1c0,0,0-0.1,0.1-0.1
		c0,0-0.1,0-0.1,0c0-0.2,0-0.4-0.1-0.6c-1.9,0.9-4.4-0.5-5.2-1.2c-2.2-1.9-4.2-1-6.3-1c-0.6,0-1.3-0.7-1.9-1c1-2.1,2.6-3,4.9-2.7
		c1.2,0.7,1.2,3,4.1,1.4c0.3-0.1,0.5-0.3,0.8-0.4c0.6-0.9,1.2-1.7,1-2.9c1.4,0.1,2.7,0.7,4.1,0.9c0.3-0.6,0.6-1.1,0.6-1.4
		c0.1-2.2,0-4.3,0-6.4c0.5-0.7,1-1.3,1.7-1.8c-0.8-0.3-1.3-0.2-1.7,0.1c0-0.4,0-0.9,0-1.3c0.5,0.1,0.9-0.2,1.4-0.6
		c0-1.6,1.6-5.3,0.1-6.4c0.4-0.5,0.8-0.9,1.3-1.4c-0.2-0.1-1-0.6-1.9-1.1c-0.3-2-0.6-4.3-1.1-6.5c0-2.1-0.1-4.1-0.1-6.2
		c0.8-0.7,1.6-1.4,2.4-2.1c-0.5-0.4-1-0.9-1.6-1.3c0.6-1,1.5-1.1,2.6-1c-0.1-0.8-0.2-1.6-0.3-2.4c-1.5,0.1-2.5,1.2-3.1,2.7
		c0-3.7,0-7.5,0.1-11.7c0.7-23.6,0.6-38.3-17.7-41.7c-13.5-2.6-31.9,5.9-39.9,10.5c-16.2,9.1-25,17-21,28.6
		c3.2,9.4,18.6,8.9,24.1,0.6c3.7-5.6,3-12.8,4.7-19.4c0.8-3.2,2.6-9.3,9.2-9.6c4.1-0.2,7.1,1.3,8.8,3.6c3.8,5.3,3.4,12.6,3.1,31.9
		c0,0.5-0.4,1.2-1,1.3c-23,7.3-35.6,16.1-40.3,20.1c-10.4,8.9-12.1,18.4-12.8,21.6c-2.1,11.3,1.2,19.4,4.8,24
		c3.4,4.4,11.9,6.8,15.2,7.4c2.5,0.4,4.9,0.4,7.1,0.2c0-0.2-0.1-0.4-0.1-0.6c0.1,0.3,0.2,0.5,0.4,0.6c6.6-0.8,12.1-3.9,16.4-7.9
		l0.1-0.1c0.5-0.4,1-1,1.4-1.5c5.4-5.7,8.6-12.2,9.4-15.7c0,0.1,0,0.1,0.1,0.2c0,0,0,0.1-0.1,0.1c-0.8,1.9,2.2,7.4,3.2,10
		c0.2,0.5-0.4,2.7-0.1,3.7c0.3,0.9,1.2,0.9,1.5,2.2c0,0.1,0.1,0.2,0.1,0.3c0.1,0.1,0.2,0.1,0.4,0.2c0.3,0.2,0.6,0.4,0.8,0.7
		c0.3,0.3,0.4,0.6,0.5,1c0.1,0.4,0.1,0.8,0.1,1.1c0,0.4-0.1,0.7-0.3,1.1c-0.2,0.3-0.4,0.5-0.6,0.7c0,0.2,0.1,0.4,0.1,0.5
		c0.2,1.6-1.3,2.2,0.7,2.9c0,0.2,0,0.4,0,0.6c-0.2,1.7,0,2.4-0.3,3.8c-0.3,1.5-0.1,3,0,4.5c0,0.2,0.3,0.3,0.3,0.6
		c0.3-0.2,0.6-0.3,0.9-0.5c1,0.2,1.9-0.1,2.7-0.8l0.3,0.1l0.2-0.2c-0.2,1.6-0.2,3.3-1.7,4.5c-0.7-0.2-1.5,0-2.2,0
		c0.3,1.6,0.3,3.4,0.5,4.8c0.1,0.6,0.1,1.1,0.2,1.7c-0.1,0-0.1,0-0.2-0.1c0.1,0.7-0.3,1.4-0.9,1.9c0.2,0.7,0.4,1.2,0.6,1.1
		c0.4-0.2,0.6-0.7,0.8-1.3c0.3,2.3,0.6,4.6,1.4,6.8c0.1,0.4-0.4,0.1-0.3,0.3c0.5,2.3,0.3,4.6-1,6.7c0.9,0.9,0.4,1.9,0.7,3
		c0.3,1.1,0.8,2.5,0.6,3.5c-0.3,2.6,0.6,4.1,1.8,5.9c0.1,1.5,0.3,3,0.4,4.5c0.9-0.4,1.7-1,2.7-0.7c-0.4,0.7-0.6,1.4-0.2,2.2
		c-0.7,0.5-1.5,0.7-2.2,0.7c0,0.4,0.1,0.8,0.1,1.2c-0.2,0.2-0.4,0.3-0.5,0.5c0.2,0.5,0.4,1.7,0.9,1.9c0.1,0.4,0.1,0.8,0.2,1.2
		c-0.1,1.3,0.2,2.9,0.5,3.4c0.1,0.1,0.1,0.1,0.1,0.2c0,0,0,0,0,0c-0.1,0.5-0.4,0.5-0.6,1c0.2,2.2,0.3,4.3,0.4,6.5
		c0,0.5-0.1,1-0.1,1.5c0,0,0.1,0,0.1,0c0,4.5-0.3,9-1.1,13.4c1.1,3.2,0.8,6.5,1.2,9.9c0.5,3.3,1,8.6,1,11.5c0.1,5.3,0.6,9.9,1,14.4
		c0.4,4.5,0.5,3.5,0.5,7.8c0.1-3.3,0.3-4.1,0.6-7.2c0.3-1.5,0.7-2.1,1.1-6c0.2-2,0.3-5.4,0.4-8.7c0.1-0.3,0.1-0.6,0.1-0.8
		c0.1-1.2,0-3.3,0.1-4.7c0-0.1,0-0.1,0-0.2c0-0.2,0-0.3,0-0.4c1-9.5,1.8-18.9,2.4-28.2c0.4-7.3,0.3-13.9-0.3-21v0
		c1.4-1.8,2.2-2.9,2.6-5.3c0.7-4.3,1.8-8.9,1.7-13.4c-1.8,0.4-2.6,1.9-2.6,3.5c-0.1,3.2-2.1,1.6-3.5,1.7c-3.4-1.4-2.3-5.3-4.1-7.7
		c-1-1.3,1.3-2.8,2.9-3.5c1,0.2,2.2-0.2,3.1,0.8c-0.8,0.5-1.8,0.9-2.3,1.6c-0.8,0.9-0.2,2,0.9,1.9c2.2-0.3,4.7-0.5,4.3-3.8
		c0.2-0.1,0.3-0.1,0.4-0.1c-0.2-0.6-0.4-1.3-0.7-1.9c1.1-1.5,1.8-4.4,1.4-5.9c-0.6-2-0.9-3.9-1-5.8c0,0,0,0,0-0.1
		c0.1-0.7,0.3-1.3,0.4-2c1.4-1.1,3.8-2.2,3.8-3.6c-1.2,0.6-2.3,0.7-3.3,0.8c0.4-2.6,0.7-5.3,0.5-8c0,0,0,0.1-0.1,0.1
		c0.6-2.7,1.2-5.4,1.4-7.8c0.1-1.9,0.4-3.9,0.7-5.8c0.4,0.6,0.7,1.5,1.3,2.2c1.2,1.3,0.6,2.1,0.7,5c0,0.7,0.8,1.3,1.3,0.8
		c0.9-0.9,0.5-1.9,0-3.1C994.1,176,997,172.7,995.1,168.2z M988.3,147.6c0.1,0.2-0.1,0.7-0.4,0.9c-1.2,0.9-2,0.3-2.7-0.8
		c-0.2-0.3-0.6-0.4-0.8-0.6c0,0-0.2,0-0.2,0c0.5-0.2,1-0.4,1.5-0.7C987.1,145.8,987.9,146.4,988.3,147.6z M983.7,87
		c1.5,0.5,2.3,1.2,2,2.5c0,0.2-0.9,0.6-1.1,0.5c-0.9-0.4-1.5-1.2-1.5-2.2C983.1,87.4,983.4,86.9,983.7,87z M968.1,150.6
		c0,0.5-0.1,1-0.4,1.5l-1.2-1.6c-0.3,0.3,0.2,2.6-0.2,2.7c-0.3,0.2-0.7,0.3-1.1,0.2c-0.1,0-0.1,0-0.2,0c0,0.1,0,0.1,0,0.2
		c-0.1,0.5-0.4,0.9-0.7,1.3l0,0c-0.1,0.2-0.1,0.3-0.2,0.5c-0.2,0.6-0.5,1.2-0.8,1.7c-1.6,3.5-4.7,7.2-8.2,9.4
		c0.2,0.2,0.4,0.5,0.7,0.7c-0.4,1.3-0.9,2.5-2.6,2c-0.4-0.1-1.1-0.7-1.1-0.9c0-0.1,0.1-0.2,0.2-0.3c-2.1,0.7-4.2,0.9-6.1,0.2
		c-7.3-2.5-8.5-11.3-6.4-19.7c3.1-12.1,12.7-19.4,13.5-20.1c2.1-2,7.4-5.9,11.6-7.2c0.5-0.2,0.9,0.1,1,0.5c-0.1,1.9-0.1,4.1-0.1,8.8
		c-0.6,0.7-1.1,1.5-1.3,2.2c-0.3,1.7,0.1,3.1,0.1,3.9c0,0.4,0.6,1,1.2,1.8c0,2,0,4.3-0.1,6.6c0,0.4,0,0.8-0.1,1.2c0,0.3,0,0.6,0,0.9
		c0.4,0.1,1-0.6,1.5-1.1c0.4,0.3,0.7,0.4,1,0.2C968.4,147.2,968.2,149.8,968.1,150.6z M966.8,96.2c0.1-0.1,0.1-0.3,0.2-0.4
		c0,0,0,0.1,0,0.1C967,96,967,96.1,966.8,96.2C966.9,96.2,966.9,96.2,966.8,96.2z M966,94.3c-0.1-0.3,0.1-0.9,0.3-1
		c1.6-0.7,1.5,1.1,2.3,1.6C967.6,95.4,966.5,96,966,94.3z M970.8,94.6c-1-1,0.1-2.3-0.3-3.4c-0.1,0-0.1,0-0.2-0.1l0,0
		c0-0.1,0-0.1,0-0.2c-1.1-1.1-3.1-1.4-3.8-4.3c1.9,1.7,4.4,1.6,3.8,4.3c0,0,0.1,0,0.1,0.1c0,0,0,0.1,0.1,0.2
		c2.1,1.1,3.5-1.2,5.4-1.3C975.2,93.2,975.2,93.2,970.8,94.6z M975.2,210.8c1.9-0.3,3.6-0.3,3.5,2.3
		C977,213.2,975.7,212.6,975.2,210.8z M979.8,200.5c-1,0.1-1-0.7-1.1-1.7c0.2-0.3,0.4-1,0.7-1.1c0.9,0,0.8,0.9,1,1.5
		C980.5,199.8,980.5,200.5,979.8,200.5z"/>
	<path class="st0" d="M994.5,162.4c-0.1,0.4,1,0.1,1.4,0.6c0.6,0.6,0.6,2,1,2c0.7-0.1,2.5-2.8,1.5-3.6
		C997.3,160.4,994.8,161.4,994.5,162.4z"/>
	<path class="st0" d="M998.3,129.5c-0.5,1.6-1,3.1-1.4,4.7c1.6-1.3,1.5-0.2,2.9,0.5C1000.1,132.6,1000.4,130.7,998.3,129.5z"/>
	<path class="st0" d="M971.3,202.3c-2.6,0.8-0.5,1.8,0.1,3C971.3,204.3,971.3,203.3,971.3,202.3z"/>
	<path class="st0" d="M972.7,215.8c-1.5-0.7-2.7,2.7-2.7,3.3c0,0.6,1.2,1.1,2,1C972.7,219.9,974.2,216.5,972.7,215.8z"/>
	<g>
		<path class="st0" d="M97,92.5l-0.1,2.7c1,0.3,2,0.6,2.9,0.9c1.5-1.2-0.4-2.3,0.2-3.4c0,0,0,0-0.1,0c-0.1,0-0.1-0.1-0.1-0.1
			C98.9,92.6,98,92.5,97,92.5z"/>
		<path class="st0" d="M127.2,4.3c0.1,0.1,0.4,0.2,0.6,0.3c0-1.1,0-1.6,0-1.6c-0.1-1.3-1.9-1.3-2.8,0c-0.1,0.1-0.2,0.3-0.3,0.4
			C125.5,3.3,126.3,3.5,127.2,4.3z"/>
		<path class="st0" d="M123.6,209.8c-0.1-0.6-0.1-1.1-0.1-1.6c0.2-1.6,1.2-3.4,1-4.6c0.4-0.4,0.7-0.9,0.9-1.3c0-0.1-1.8-0.1-1.8-0.1
			h0v0c0,0,0,0-0.1,0c0,0-0.1,0-0.1,0c-0.1,0-0.1,0-0.2-0.1c-0.2-0.1-0.5-0.2-0.7-0.3c0,0,0,0-0.1,0c-0.2-0.2,0-1.3-0.2-1.5
			c-0.5-0.5-1.1,0.3-1.3-0.3c-0.1-0.3-0.1-0.6-0.1-0.8c0-0.7,0.1-0.9,0.4-1.5c0.3-0.4,1.4,1.5,1.8,1.2c0.2-0.1-0.3-2.4-0.1-2.5
			c0.3-0.1,0.5-0.1,0.8-0.1c0.2,0,0.4,0,0.6,0.1c0.1-0.1,0.2-0.2,0.3-0.2c-0.1-0.6-0.4-1.3-0.8-1.9c0.1-1.9,0.2-3.6,0.5-5.2
			c0.4-0.1,0.8-0.2,1.2-0.4c-0.3-0.1-0.6-0.3-0.4-0.9c0.2-0.5,0.5-0.7,0.9-0.8c0-0.9-0.1-1.7-0.6-2.4c0.3-0.8,0.7-1.5,1.1-2
			c-0.7,0.3-1.3,0.7-2,1.1c0.6-0.4,1.3-0.7,1.9-1.1c-0.1,0-1.6-1.4-2.6-2.1c-0.3-1.4-0.7-2.9-1.4-4.2c0,0,0,0,0,0
			c-0.1,0-0.1,0-0.2,0c0,0,0-0.1,0-0.1c0.3,0,0.6,0.1,0.9,0.1c-0.1-0.5-0.2-0.9-0.4-1.3c0.1-0.2,0.2-0.4,0.3-0.5
			c0.8-1.6,1.5-3.2,2.2-4.7c0.6-1.4-1.8-5.8-1.2-7.1c0.4-0.9,2.2-1.4,2.6-2.2c0.3-0.7-1-1.8-0.7-2.4c0.4-1.1,2.6-2.6,3-3.5
			c1.1-2.7-0.1-4-0.1-4.4c-0.1-3.4-0.1-6.7-0.1-9.8c0-1.6,0-3.1,0-4.5c-1.3,2.1-3.1,4-5,4.8c-1.9,0.8-2.7,0.2-2.9-1.5
			c-0.2-2,0.5-4.1-0.4-6.1c2.7-1.3,6-1,7-4.4c0.1-0.5,0.7-0.7,1.3-0.7c0-1.9,0-3.5,0-4.7c-0.1-2.3-0.3-19.6-0.5-40.3
			c-1.5,1.6-2.4,3.7-2.2,6.4c0.1,1.7-1.4,2-2.5,2.6c0.2-1.6,1.1-2.9,0.6-4.8c-1.1-4.1,0.1-5.6,4.1-6.1c-0.2-15.9-0.3-33.6-0.5-48.1
			c-0.8-2.2-2.5-4-3.3-6.2c-0.2-0.7-0.4-1.4-0.6-2.1c0.3-2.8,1.2-5.4,0.4-8.4c-0.5-2,1.2-2.9,3.2-1.6c0.1,0.7,0.1,1.3,0.2,2
			c0-4.9-0.1-8.8-0.1-11.1c0,0.1,0,0.1,0,0.2c-0.1,0.8-0.4,1.1-1.2,0.8c-1.1-0.5-2.2-0.7-3.3-0.7C38.6,138.3,38.4,138.3,34.7,144.2
			c-22.2,34.7-31.4,38.7-32.9,39.5c-2.2,1.1-2.5,2.8-0.5,2.8h28.4c0.8,0,1.6,0,2.1-0.1c0.6-0.3,1.1-1.2,0.3-1.7
			c-0.3-0.2-6.1-7.3,8.2-33l11.8-19.3c0.9-1.4,2.6-2.5,4.2-2.5l37.6,0.4c1.1,0,1.7,0.7,1.7,1.5l0,10.1l-0.2,3.6l1.1,1.3l-0.9,4.6
			c0,1,1.1,2.9,1.3,4.3c0.2,1.1,0,2,0,3.1c-2,0.7-3.5,1.6-1.5,2.8c0.8,0.5,1.4,0.3,1.8-0.1c-0.1,2.3-0.8,7.7-0.6,8.6
			c0.1,0.5,0.3,1,0.4,1.5l-1.1,1.6c0,0,0.9,2.3,1.1,1.9c0.1-0.2,0.4-0.7,0.8-1.2c0.5,1.6,1.1,3.1,1.7,4.5c-0.7,0.6-1.4,1.1-2,1.7
			c0.5,0.2,1.1,0.3,1.7,0.5c-0.2,1.3-0.3,2.6-0.3,4.1c0,1.2,2.5,0.7,2.8,1.7c0.3,1-1.2,1-1.3,1.8c-0.2,0.8,0.3,2-0.1,2.6
			c-0.4,0.6-0.7,1.2-1,1.8c-0.1-0.7-0.1-1.6-0.5-1.8c-0.6-0.4-2.1,0.7-2.6,0.4c0.7,0.7,1.7,1.8,2.6,2.6c-0.5,1.4-0.9,2.8-0.8,4.3
			c0.1,1.7,0.3,3.2,0.5,4.7c-0.6,1.6-0.7,3.4-0.8,5.2c0.9-0.2,1.3,2.2,1.8,2.7c-0.3,1.1-0.8,2.3-1,3.4c-0.3,1.7,0.6,3.4,0.8,5.1
			c0.2,1.7,1.2,5.6,1.4,6.3c0.1,0.3,0.4,3.3,0.7,6.7c0,0.2,0.1,0.3,0.1,0.5c0,0-0.1,0-0.1,0c0.2,2.5,0.5,5.1,0.7,7.2
			c-0.1,3.3-0.3,7.3-0.3,8.1c0,0.7,0.8,3.1,1.6,5.3c0.1,0.4,0.1,0.8,0.2,1.2c0.4,2.2,1,4.2,1.7,6.1c-0.3,0.2-0.6,0.3-0.8,0.5
			c0.4,0.6,0.8,1,1.4,1.1c0.2,0.4,0.3,0.8,0.5,1.3c0,0.7,0.3,1.4,0.8,2.1c0,0,0,0.1,0.1,0.1c-0.2,0.2-0.5,0.5-0.7,0.7
			c0.4,1.6,0.7,3.3,0.9,5c0,0.1,0,0.2,0,0.4c0,0,0.1,0,0.1,0c0.1,0.8,0.2,1.6,0.2,2.4c0.1,1.3-0.2,2.4-0.2,3.6
			c0.1,1.2,0.8,2.3,1,3.4c0.2,1.1-0.4,1.8-0.4,2.8c0,1,0.4,2.2,0.7,3.2c0.6,2,1.3,5,1.5,6.8c0.4,3.4,0.9,6.4,1.3,9.4
			c0.5,3,1,8.6,1.3,11.5c0.2-2.6,0.2-6.6,0.5-9.7c0.4-1.7,0.8-3.3,1.1-5c0.3-1.8,0.5-3.9,0.6-5.9c0.1-0.2,0.1-0.4,0.2-0.6
			c0.1-0.9,0-2.4,0.2-3.3c1-6.3,1.7-12.7,2-19c0.2-3.9,0.8-7.5,0.2-11.4c-0.1-1-1.7-1.7-1.9-2.5c-0.2-0.8,0.5-0.5,0.8-0.9
			c0.9-1.2,1.8-1.7,2-3.3c0.3-2.3-0.3-6.3-0.1-8.2c0.3-3,0.3-4-0.3-6.6c1.4-0.5,2.6-2.6,2.6-3.9c-0.1-2.1-0.2-3.9-0.1-5.7
			c1.1-2.8,2-5.7,2-8.7c-0.1,0.1-0.3,0.2-0.5,0.3c0.7-2.2,1.5-4.4,1.8-6.7c0.1-0.7,0-1.5-0.1-2.4l1.6-0.5c0,0,0.1-0.9-0.4-1.7
			C125,209.3,124.3,209.5,123.6,209.8z M106.3,87.8c2.3-0.6,2.8-0.7,3,0.6c0.2-0.8-0.5-1.3-1.5-1.9c-0.5-0.3-0.8-1.4,0.4-1.7
			c0.5-0.1,1.3-0.3,1.6,0c1.4,1.2,0.7,4.8-1,6.4c0-0.3,0-0.7-0.1-1c-1.8,0.1-2.7-1.1-3.4-2.7C105.6,87.6,106,87.9,106.3,87.8z
			 M106.3,96.6c-0.5,0.1-1.1,0.2-1.9,0.3c-0.3,0-0.8-0.2-0.9-0.8c-0.1-0.7,0.5-0.9,1.1-0.7C105.2,95.7,105.7,96.2,106.3,96.6z
			 M100.9,46.7c0.6-0.6,0.7-1.3,0.6-2.1c1.1-0.2,2.1-0.3,3.2-0.5c-0.8,2.3-2.5,3.9-4.2,5.6C100.7,48.7,100.8,47.7,100.9,46.7z
			 M98.8,69c0.1-0.5,0.5-0.9,1-0.7c0.9,0.3,0.9,1.1,0.7,1.9c-0.1,0.5-0.5,0.8-1,0.7C98.7,70.5,98.6,69.8,98.8,69z M88.4,125.9
			c-0.1,0.2-0.6,0.3-0.9,0.4c-0.6-0.1-1.1-0.3-1-1c0.1-0.2,0.6-0.4,1-0.4C88,125,88.6,125.2,88.4,125.9z M96.5,108.9l-0.4,12.3
			c-0.1,1.1-1.2,2-2.2,2l-34.1-0.4c-1,0-1.3-0.9-0.9-1.7l37-59c2-3.3,2.3-1.8,2,0l-0.6,18.1c0.3,0.1,0.5,0.3,0.3,0.8
			c-0.1,0.2-0.2,0.4-0.4,0.5l-0.3,8.3c0.3,0,0.7-0.1,1.1-0.2c1.1-0.5,0.3,2.3,1.6,3.1c0.1,0,0.2,0,0.2,0c0,0,0,0.1,0,0.1
			c3.4-0.5,1.6,2.3,1.9,3.5c0.3,1.1-2.3,2.6-3.6,2.1c-0.5-0.2-0.9-0.6-1.4-0.8l-0.3,10.5c0.8-0.8,1.9-0.7,3.3-0.6
			C98.8,108.3,97.8,109,96.5,108.9z M104,218.2c1,1,0.2,3.7-2.4,3.9c-0.5,0-1.1-0.2-1.5-0.5c-0.4-0.4-0.3-1.1,0.2-1.4
			c2.7-1.7,2.5-4.1,2.1-6.7c-0.1-0.9,1-0.9,1.7-1.1c0,0.4,0.2,0.6,0.6,0.7C104.5,214.7,101.8,215.8,104,218.2z M102.1,105.7
			c-2.2-0.1-0.8-1.5-0.7-1.8c0.6-1.5,4.5-2.5,5.8-1.7c1.1,0.7-0.5,1.5,0.1,2.5c0.9,1.3,3.1,0,3.5,2.6
			C107.9,106.7,105.1,105.9,102.1,105.7z M110.4,229.1c-0.5,0-1.1,0.1-1.6,0.1c0.2-0.8,0.1-1.4-0.6-1.8c0.4-1.2,0.4-2.6,2.3-3.7
			C110.2,225.8,109.5,227.5,110.4,229.1z M111.3,141.7c-0.4,0.3-0.8,0.6-1.2,0.9c-1.5-0.8-3.5-1.1-4.1-3.2c0.8-1,2-0.3,2.9-0.5
			C110.3,139.3,111.5,139.9,111.3,141.7z M122.3,176.8c0.2,0.3-0.2,1.3-0.5,1.4c-1,0.3-1.8-0.1-2.2-0.9c-0.4-0.9,0.3-1,0.8-1.1
			C121.1,176.1,121.9,176.1,122.3,176.8z M118.9,144.2c-1.3,0.4-2.2-0.5-3.3-1c-0.1-0.8-0.2-1.7-0.2-2.5c1.7,0.4,3.3,0.9,4.2,2.5
			C118.8,143.1,118.9,143.6,118.9,144.2z M118.9,190c-0.1,0.1-0.2,0-0.4-0.1C118.4,189.9,118.9,190,118.9,190z M116.8,105.2
			c0-0.6,0.6-1.1,1.3-1c0.9,0,2-0.1,2,1.2c0,0.5-0.3,1-0.5,1.5C118.5,106.1,116.9,106.8,116.8,105.2z M126.2,119.6
			c0.1-0.2,0.6-0.1,0.9-0.1c0.6,0.1,1.4,0.1,1.4,0.9c0,1-0.7,1.7-1.5,1.2c-1.9-1.2-3.6-0.5-5.3,0.3c-3.2,1.7-2.4-0.9-2.7-2.3
			c0,0-0.1,0-0.1,0c0-0.1,0-0.1,0-0.2c-0.1-0.1-0.2-0.2-0.3-0.3c0.1,0,0.2,0,0.2,0.1c0,0.1,0,0.1,0,0.2c0,0,0.1,0.1,0.1,0.1
			c0,0,0,0.1,0,0.1C121.5,120.3,123.9,122.2,126.2,119.6z M126.4,74.8c-0.7,0.4-1.6,1.5-2.2,0.1c-0.5-1.2-0.4-2.6-0.7-3.9
			c-0.5-1.8-1.8-2.3-3.5-1.9c0.7-0.4,0.9-1.1,1.2-1.8c0.7-2.1,2.3-2.1,3.2-0.6C125.7,69.2,128.2,71.5,126.4,74.8z M123.4,46.1
			c2.1,1.2,0.7,4.1,2.5,5.4c-0.5,2.1,1.2,3.7,1.1,5.8c-3.3,0.1-3.8-3.3-4.2-4.9c-0.6-1.9-2.3-4.4-0.5-6.7
			C122.6,45.9,123,46,123.4,46.1z M117.8,35.7c1.3-0.6,2.6-1.1,4.4-1.8c-0.7,2.4-2,3.2-3.5,4c-1.2,0.6-1.7-0.1-2.1-1
			C115.9,35.4,117.3,35.9,117.8,35.7z M113.5,80.9c-2.4-2.2,0-5-1-7.3c0.2-0.6,0.3-1.1,0.5-1.7c1-0.2,2.5,0.4,2.5-1.5
			c1.3-0.7,2.4-2,4.1-2c0,4,0,8.1,0,11.9c-2.2,1.1-2.5-1.2-3.8-1.1C114.7,79.2,115,81.3,113.5,80.9z M114.5,184.2
			c0.1-0.6,0.2-1.3,0.2-1.9c1.2-0.5,2.4-0.5,3.7-0.2C116.9,184,116.9,184,114.5,184.2z M117,211.3c0.3-0.7,0.9-0.7,1.6-0.7
			c0.1,0.5,0.2,1,0.3,1.5c-0.5,0-1,0-1.5,0.1C117.4,211.9,117.3,211.6,117,211.3z M118.1,214.8c0.1-0.4,0.1-0.9,0.2-1.3
			c0.4-0.1,0.8-0.2,1.3-0.4c0.9,0,1.9,0.2,2.6-0.5C122.5,216.3,119.7,214.4,118.1,214.8z"/>
	</g>
	<path class="st0" d="M253.1,71.4c1.4-1.3,1.7-2.8-0.5-3.1c-5.9,0-17.7,0-25.1,0c-0.3,0.2-0.5,0.3-0.9,0.4c-0.3,0.6-0.5,1.3-0.4,1.9
		c0.2,0.3,0.3,0.5,0.5,0.7c0.9,0.9,2.3,1.8,3.1,4c2,5.1,1,15.9-3.3,29.9l-8.3,24c0.4,0.1,0.7,0.4,0.9,0.9c-0.4,0.4-1,0.6-1.5,0.8
		l-4.3,12.4c-0.7,2.2-1.9-2.5-2.2-3.7l-11-29c-0.6,0.2-1.1,0.5-1.8,1.1c0.3-1.2,0.8-2,1.3-2.4l-3.1-8.1c-6.3-19.8-5.3-24.1-2.1-30.4
		c1.2-2.3-1.2-2.5-1.2-2.5l-43.6-0.1c-0.2,0.2-0.5,0.4-0.7,0.6c0,0.1-0.1,0.1-0.1,0.2c0,0.1,0.1,0.2,0,0.3c0,0.3-0.1,0.5-0.1,0.8
		c5.8,4.7,10.9,16.5,12.9,21.4c0.3,0.6,3.4,8.3,7.9,19.2c0.9,0,1.8,0.1,2.7,0.1c-0.6,0.6-1.1,1.3-2,1.7c12,29.3,32.3,78.8,32.3,78.8
		c0.4,0.9,1.8,0.9,2.1,0c0,0,3.2-9.2,7.7-21.7c-0.2-0.1-0.5-0.2-0.5-0.4c-0.1-0.2,0.1-0.6,0.2-0.9c0.2,0.2,0.5,0.3,0.7,0.5
		c1.3-3.8,2.8-7.8,4.2-12c-0.2-0.6-0.3-1.2-0.3-2c0.3-0.8,0.4-1.8,1.7-1.8c3.9-11.1,8-22.7,11.4-32.1c-0.7,0.2-1.4,0.3-2.2,0.3
		l-0.2-0.1c-0.6-1.4-1-2.8,0.2-4.1c0.2-0.1,0.3-0.2,0.2-0.5c1.1-1,2.4-0.7,3.7-0.6c2.8-7.9,4.8-13.5,5.1-14.5
		C238.2,97,245.4,78.1,253.1,71.4z M163.8,72.2c-0.5-0.1-1-0.5-1.2-0.9c-0.4-0.8,0.4-0.8,0.8-1c0.8-0.1,1.6,0,1.5,1
		C164.9,71.9,164.4,72.3,163.8,72.2z M167.2,97.7c-0.4-0.1-0.7-0.1-1.1-0.2c0-0.7-0.5-1.7,0.6-1.7C167.1,95.7,167.4,96.9,167.2,97.7
		z M200,150.4c1,0.5,2.4,1.7,1.7,2.2c-1.7,1.3-2.9,0-3.5-1.7C198.9,150.7,199.4,150.5,200,150.4z M189.7,121.2
		c0.1-0.3,0.7-0.5,1-0.6c0.8,0.2,1.1,0.7,1.2,1.3c0,0.1-0.8,0.3-1.2,0.3C190,122.3,189.4,122,189.7,121.2z M172.4,96.7
		c1.2,0.2,2.5,0.1,3.4,1.2C173.7,100.3,173.1,98.2,172.4,96.7z M176.5,101.1c1.3-0.1,2,1.2,1.8,2.6c-1,0.1-2,0.1-3.1,0.2
		C174.5,102.4,175.3,101.2,176.5,101.1z M178.5,108.7c-0.8,0.8-1.7,0.8-2.8,0.6c0-0.6,0-1.3-0.1-1.9c0.3-0.2,0.5-0.5,0.5-0.9
		c0.9-0.4,1.8-0.8,2.7-0.2C179.9,107.2,178.1,107.9,178.5,108.7z M188.3,90.6c-0.6-0.1-1.3-0.1-1.3-0.9c-0.1-0.7,0.4-1.2,1.1-1.1
		c0.6,0.1,1.1,0.5,1.1,1.2C189.1,90.3,188.9,90.7,188.3,90.6z M189.2,155.1c0-0.8,0-1.5,0-2.3l0.3-0.3l-0.1-0.3
		c1-0.2,2.1-0.3,3.1-0.5C192.5,154,191.8,155.5,189.2,155.1z M192.5,133.8c-0.2-0.8-0.4-1.5-0.6-2.3c0.9-0.1,1.9-0.3,2.2,0.8
		C194.4,133.6,193.3,133.6,192.5,133.8z M192.8,129.4c-0.1-0.6-0.3-1.3-0.4-1.9c1.4,0.3,2.8,0.6,4.2,0.9
		C196,131.5,196,131.5,192.8,129.4z M202.2,154.4C202.1,154.4,202.1,154.4,202.2,154.4c-0.2,0.4-0.4,0.8-1,1c-0.9-0.2-1.2,0-0.7,0.9
		c0,0.4,0,0.8,0,1.3c-0.5,0-1.1-0.1-1.6-0.1c-0.1-1.2-0.6-1.8-1.9-1.3c-0.9-1.2-1.3-2.6,0.7-2.6c1.6,0,3.2,0.1,4.6-0.7
		C202.2,153.4,202.2,153.9,202.2,154.4C202.1,154.4,202.1,154.4,202.2,154.4z M200.9,126.6c0.2-1.5-0.6-3.3,1.2-4.4
		c-0.2,1.9,1.7,2.6,2.4,3.9C203.4,127.1,202.1,126.8,200.9,126.6z M225.3,120.6c-0.2,0.7-0.7,0.9-1.4,0.7c-0.4-0.1-0.8-0.4-0.5-1.4
		c0.1-0.3,0.6-0.5,1.2-0.4C225.1,119.7,225.5,120,225.3,120.6z M229.7,113.3c-0.2,1.3-1.9,0.6-2.9,0.7c-1.3,0.1-1.3,0-1.7-3.3
		c0.7,0.3,1.3,0.4,1.6,0.7C227.5,112.3,230.1,110.9,229.7,113.3z M231.7,90.6c0,0.2-0.4,0.4-0.6,0.6c-0.2-0.2-0.5-0.4-0.5-0.6
		c0-0.3,0.2-0.7,0.4-0.8C231.7,89.6,231.7,90.2,231.7,90.6z M232.2,88.8c-0.1-0.1-0.2-0.2-0.3-0.4c0.1-0.1,0.2-0.2,0.3-0.3
		c0.1,0.1,0.3,0.2,0.2,0.4C232.5,88.6,232.3,88.7,232.2,88.8z M233.9,94.7c0.9-1.9-0.3-4.8,3.5-3.8C235.7,91.6,236.3,94,233.9,94.7z
		"/>
	<path class="st0" d="M306.9,69.4c-0.9,0.7-1.6-0.2-2.1-1c0.2-0.6,0.4-1.2,0.6-1.7h-1.4c-0.5,0-0.9,0.1-1.4,0.1
		c-0.1,0.8-0.5,1.4-1.1,1.8c-0.8,0.5-1.8,0.7-2.6-0.1c-0.3-0.2-0.4-0.7-0.4-1.1c-20.9,4.5-39.3,29.4-39.1,63.2
		c0.4-0.3,0.9-0.4,1.5-0.5c0.4,0.9,0.6,1.8,0.1,2.7c-0.5,0-1.1,0.2-1.5,0c0,0.7,0,1.4,0.1,2c0.1,1.1,0.2,2.2,0.3,3.4
		c0.2,2.3,0.6,4.6,1.1,7c0.3,0.1,0.8,0,1.1,0.1c0.2,1-0.2,1.4-0.7,1.7c1.7,7.5,4.7,15,9.4,21.8c9.6,13.8,24.3,19.5,39.3,19.3
		c-0.5-0.3-1.2-0.6-2.2-1c0.5-1.2-1.8-2.4,0-3.6c1.7,0,3.6,0.5,5-0.1c3.1-1.4,2.2,2.5,4.1,2.7c0.8,0.1,0.4,0.9-0.1,1
		c-0.5,0.1-0.9,0.4-1.1,0.7c14.2-1.6,22.2-8.3,23.5-11.2c0.7-1.5,0.4-1.4-2.4-1.4c-15.8,0.3-38.4-9.9-45.8-36.2
		c-0.5-0.5-1-1.1-1.5-1.6c0.2-0.6,0.5-0.9,0.8-1c-1.3-4.9-2.4-10.3-3.1-16.6c-0.1-0.7-0.1-1.3-0.1-1.9c0,0.1,0.1,0.3,0.1,0.4
		c0.2-0.1,0.4-0.3,0.7-0.3l11.9-1.3c-0.1-0.1-0.3-0.2-0.4-0.3c1.2-0.8,2.3-1.2,3.5-0.1l20.3-2.3l12.8-1.4l6.5-0.8
		c1.3,0,2.3-1.1,2.1-2.4c-0.4-3.1-1-7.1-2.4-11.9c-0.5-2-1.2-4.1-2-6.4C335,77.3,322.1,68.8,309,67
		C308.4,67.9,307.7,68.8,306.9,69.4z M324.1,78.4c0.8,0.2,1.3,0.7,1.6,1.5c-0.4,0.1-0.9,0.4-1.2,0.4c-0.6-0.1-1.2-0.5-1.2-1.2
		C323.3,78.6,323.5,78.3,324.1,78.4z M280.9,108.1c0.7,0.2,1.7-0.1,1.7,1.1c0,0.8-0.7,0.9-1.4,0.9c-0.8-0.1-1.7-0.2-1.7-1.3
		C279.5,108,280.3,108.1,280.9,108.1z M260,138c-0.3-1.4,1.4-1.5,2.1-2.2c0,0.9,0,1.8,0.1,2.6C261.4,138.4,260.3,139.5,260,138z
		 M268.1,122c-1.2-0.1-2.5-0.9-3.2,0.7c-0.4,0.8,0.5,1.2,1.1,1.5c0.3,1.4-0.1,2.4-1.6,2.8c-0.3-1.1-2.8-1.1-1.5-3
		c0.5-0.7,0.2-1.4,0.2-2.1c0-1.6-3.2-2.8-0.5-4.8c2.4-1.8,4.8-2.8,7.7-0.9C270.4,118.5,269.8,120.4,268.1,122z M271.7,139
		c-0.3,0-0.6-0.2-0.8-0.3c0.1-0.3,0.2-0.6,0.4-0.9c0.3,0.1,0.6,0.2,0.8,0.4C272.3,138.6,272.1,139,271.7,139z M272.5,130.8
		c-0.1,0-0.4-0.3-0.5-0.9c-0.1-0.6,0.3-0.9,0.8-1.1c0.7-0.2,1,0.2,1,0.8C273.9,130.1,273.7,130.6,272.5,130.8z M275.1,120.3
		c-0.8-0.3-1.5-0.6-2.3-0.9c-0.7-0.5-1.4-1-2.1-1.5c0.5-3.1,1.6-5.4,5.3-5.2C276.1,115.2,275.7,117.7,275.1,120.3z M270.4,113.7
		c-0.6,0.7-2.6,0.8-2.5-1.5c0.1-1,0.5-2.2-0.6-3.1c0.9-3.6,2.6-1.4,4-0.5c1.2,1.5,3.3,1.7,6.3,2.5
		C274.5,112.7,272.1,111.8,270.4,113.7z M282.9,128.6c-2.1,0.4-2.7-1.9-4.4-2.3c0.1-0.3,0-0.6-0.1-0.9c0.7-0.1,1.5-0.2,2.2-0.4
		C283.4,124.9,283.4,126.6,282.9,128.6z M300.2,114c-0.4-0.1-1-0.3-0.7-1c0.4-0.7,0.4-1.9,1.7-1.7c0.5,0.1,0.9,0.5,0.8,1
		C301.8,113.4,301.3,114.1,300.2,114z M311,115c-1-0.2-1.9-0.4-2.9-0.7c0.8-1.4,2,0,2.9-0.8c0.4-0.3,0.6,0.4,0.6,0.9
		C311.6,114.8,311.4,115.1,311,115z M313.2,100.5c-2.1,3.3-5.6,6-10.7,7.3l-15,3.9c-0.3,0-0.6-0.1-0.8-0.2v-1.3
		c-0.4-16.7,4.5-30.8,11.5-34.8c-0.3-0.4,0-0.9,0.5-1c0.5-0.1,1.1-0.1,1.5,0.1c0.2-0.1,0.4-0.1,0.6-0.2c1.3-0.3,2.7-0.4,4-0.2
		c3.9,1.1,7.1,4.1,9.1,8.2c0,0,0,0,0,0.1C316.6,88,316.7,95,313.2,100.5z"/>
	<g>
		<path class="st0" d="M434.6,32.9c-0.7-0.3-0.9,0.3-0.8,0.8c0,0.2,0.5,0.3,0.8,0.5c0.2-0.2,0.5-0.4,0.7-0.6
			C435.1,33.3,434.9,33,434.6,32.9z"/>
		<path class="st0" d="M483,193.6c2.6-8,5.8-18.3,9.4-29.9c-0.2-0.1-0.3-0.3-0.4-0.5c-0.3-0.8,0.4-1.2,1-1.6c0,0,0,0,0,0
			c4.5-14.8,9.6-31.4,14.5-47.7c-0.5,0.1-1,0-1.4-0.1c-0.6-0.1-1.3-0.7-0.9-1.3c0.5-0.9,1.6-0.8,2.5-0.9c0.2,0,0.4,0,0.5,0.1
			c0.3-0.9,0.6-1.9,0.8-2.8c-0.1,0-0.2,0-0.3,0c0.1-0.1,0.2-0.2,0.4-0.3c0.5-1.7,1-3.3,1.5-4.9c-1.1-1.7-3.1-3.2-1-5.7
			c-2-2.2-0.3-3,1.9-4.3c0.1,1.5,0.3,2.4,0.1,3.1c-0.2,0.6-0.3,1.2-0.3,1.7c0.3-0.2,0.6-0.4,1-0.4c4.1-13.5,7.9-26.3,11-36.8
			c0-0.1,0-0.1,0-0.2c0-0.1,0.1-0.2,0.1-0.3c0.6-2.2,1.3-4.2,1.9-6.2c-1.1,0.4-2.1,1.1-3.2-0.1c0.6-0.6,1.2-0.7,1.8-0.6
			c0-0.1-0.1-0.2-0.1-0.2c0.2-0.4,0.5-0.5,0.9,0c0.2,0.3,0.5,0.5,0.7,0.8c0,0,0,0,0,0c0,0,0,0,0,0c0.2-0.6,0.3-1.1,0.5-1.7
			c-3.5,0.1-6.6-1.7-9.9-1.7c-4.6,16.6-9.7,35-14.6,51.7c0.6-0.1,1.1-0.1,1.5,0.4c0.2-0.7,0.3-1.5,0.5-2.2c1.4,0.9,2.2,1.4,3.3,2.1
			c-1.4,0.7-0.8,3-2.9,3.1c0.3,2.5,3.3,0.1,4.1,2.8c-3.8-2-6,1-8.8,2.1c0,0,0,0,0,0c0,0-0.1,0.1-0.1,0.1l0.1-0.1c0,0,0,0,0,0
			c0.7-1.3,1.8-2.3,2.5-3.5c-0.3,0.2-0.5,0.3-0.9,0.4c-0.3-0.3-0.5-0.6-0.7-0.9c-2.5,8.5-5,16.4-7.2,23.2c-0.3,0.9-1.6,1-1.9,0
			C475.3,83.5,450.3,6.6,450.3,6.6c-0.3-0.4-0.9-2.1-3.1-2.1c0,0-0.2,0-0.6,0c0.1,0,0.3,0.1,0.5,0.1c-0.3,0.8-0.7,1.6-0.5,2.3
			c0-0.1,0-0.1,0-0.2c0-0.5,0.4-0.7,1.1-0.8c0.5,0.1,1.1,0.3,0.9,1.1c-0.1,0.5-0.4,0.9-0.8,0.8c0.1,0,0.1,0.1,0.2,0.1
			c4.1,1.7,4.1,2.4,0.3,5.4c-0.5-0.7-1.6-5.7-1.8-6.8c0-0.4-0.7-0.8-1.1-1.2c0.1-0.3-0.1-0.6-0.1-0.9h-9.5c-0.8,0.2-1.6,0.2-2.3,0
			h-29.9c-1.4,0.3-1.4,2.3-0.3,2.7c1.1,0.4,4.8,4.3,7.8,11.3c0.1-0.2,0.2-0.3,0.3-0.5c0.4-0.1,0.7-0.1,1.1-0.2
			c0.8-0.3,1.6-0.2,1.6,0.6c0,0.8-0.9,0.9-1.6,0.9c-0.4,0-0.8-0.2-1.2-0.4c1.8,4.2,3.3,9.4,4,15.7c0.7,6.3,0.9,39,0.9,68
			c0.4,0.2,0.6,0.7,0.7,1.2c0.1,0.5-0.2,0.8-0.7,0.8c-0.1,22-0.3,41.6-0.8,45.2c-1.1,8.7-1.8,25-10.4,34.4c-1.1,1.1-1.7,2.8,0,2.8
			c0.8,0,23-0.5,31.3-0.4c2.2-0.1,1.7-1.1,0.8-2.1c-4.2-4.5-8.2-10.6-9.9-33.5c-0.5-6.1-0.7-34.1-0.8-59.3c-0.4,0-0.9-0.1-1-0.4
			c-0.4-0.8-0.6-1.7-0.9-2.6c-2.4,0.5-4.4,2.5-7.2,1.9c2.2-1.5,4.2-3.5,7.2-2.5c1-0.2,1.6,0.1,1.9,0.6C426,67,426,48,426,48
			s0-8.1,0.1-13.7c0-0.6,0.8-0.8,1.1-0.3c4.3,10.5,45.7,136.5,53.4,159.6C480.9,194.9,482.6,194.8,483,193.6z M514.1,61
			c0.9-0.1,0.8,0.8,1,1.5c0.2,0.6,0.4,1.3-0.4,1.4c-1,0.2-1.1-0.8-1.4-1.5C513,61.8,513,61.3,514.1,61z M513,68.6
			c3,1.7,2.6-2.3,4.4-2.7c-0.2,3-2,5.1-4,4.8c-0.8-0.1-1-0.7-1.1-1.3C512.3,69,512.6,68.4,513,68.6z M418.3,92.7c0.1,0,0.3,0,0.4,0
			c0.1,0,0.1,0.2,0.1,0.2C418.6,93.2,418.4,93.1,418.3,92.7l-0.1-0.1L418.3,92.7z M422.1,21.5c0.6,0.1,1.3,0.2,1.3,1
			c0,0.5-0.3,0.9-0.9,0.8c-0.7-0.1-1.2-0.4-1.3-1.1C421.2,21.6,421.5,21.4,422.1,21.5z M424,40.7c-0.2,0.2-0.5,0.5-0.6,0.5
			c-0.8-0.3-1.3-0.9-1.1-1.8c0.1-0.4,0.4-0.5,0.7-0.2C423.5,39.6,424.2,39.9,424,40.7z M420.3,84.3c1.5-1.9,3-1.4,4.4-1.1
			C423.6,84.3,422.3,84.5,420.3,84.3z M428.7,12.2c-1.3,3-3,2.5-4.8,0.4c1.5,0.3,2.9,0.3,3.4-1.6c0.4-1.7,1.5-1,2.5-0.8
			c0,0,0,0,0,0.1c0.2,0,0.4,0,0.5,0l0.5,0.1c-0.1,1.6-0.9,1-1.5,0.7C429.1,11.5,428.9,11.8,428.7,12.2z M438,34.2c0-0.1,0-0.2,0-0.4
			c-1.8,0.2-1.8,1.4-1.2,3c-0.8,0.2-1.8,0.1-2.3,1c-1.8,0.4-3.4-0.2-4.1-1.8c-0.8-1.9,2.3-1.6,2-3.3c1.8-0.7,0.9-1.5,0.1-2.3
			c0.1-0.4,0.1-0.9,0.2-1.3c1.9,0.9,3.7,1.7,5.6,2.6c0.2-0.4,0.4-0.8,0.6-1.2c-0.9,0-1.8,0-2.8-0.1l-0.3-0.2
			c-0.3-0.6-0.5-1.3-0.8-1.9c0.6-0.1,1-0.3,1.1-1c0.8,0.2,1.5,0.3,2.2,0.5c0.3,0.7,0.5,1.5,0.8,2.2c1.3-0.6,2.6-1.5,2.8,1.1
			c-0.8,1.1-1.5,2.2-2.3,3.3C439.2,34.4,438.6,34.3,438,34.2z M441.5,39.8L441.5,39.8C441.5,39.8,441.5,39.8,441.5,39.8
			c0.3,0.4,0.1,0.8-0.2,1.1c-0.1,0.1-0.6-0.1-0.6-0.2C440.7,40.2,441,39.9,441.5,39.8C441.4,39.8,441.4,39.8,441.5,39.8
			C441.4,39.8,441.5,39.8,441.5,39.8c0.2-0.6,0.6-0.9,1.3-0.6c0.1,0,0.2,0.4,0.1,0.4C442.5,39.9,442,40.2,441.5,39.8z M470.8,92.9
			c0.5-0.8,1.1-1.1,1.9-0.8c0.1,0.1,0.2,0.2,0.3,0.3c-0.9-0.3-1,1-1.8,1C470.8,93.4,470.6,93.1,470.8,92.9z M465.8,88.6
			c0.5,1.7,2.7,2.6,2.5,4.6c-1.9-0.1-1.3-3-3.3-3.1c0-0.5-0.1-1-0.1-1.5C465.3,88.6,465.8,88.5,465.8,88.6z M453.4,23
			c0.3,0.1,0.7,0.2,0.7,0.4c0,0.3-0.1,0.7-0.3,0.9c-0.3,0.3-0.6,0.1-0.7-0.4C453.2,23.6,453.3,23.3,453.4,23z M452.3,99.8
			c-0.2-0.5-0.4-1,0-1.5c0.7,0.1,1.4,0.3,2.1,0.4l0,0.4C453.7,99.3,453,99.5,452.3,99.8z M454.3,37.2c-0.8-0.4-1.8-0.9-0.9-2
			c1.1-1.4,2.2-2.9,4.2-3.1c1,0.9,0.6,2.7,2,3.4c-0.6,1.5-2.4,0.7-3.3,1.6C455.5,37.2,454.9,37.2,454.3,37.2z M459,97.3
			c-0.2-1.1,1-0.9,1.5-1.3c0.3-0.3,0.8-0.3,2-0.7c-0.5,1.1-0.6,1.5-0.9,1.8c-0.5,0.7-1,1.7-2.1,1C459.3,97.9,459.1,97.6,459,97.3z
			 M461.9,106.8c0,0.8-0.3,1.7-1.4,1c-1-0.6-1-1.5-0.2-2.3c0.7-0.7,1.4-1.2,2.8-1.2C463.4,105.6,461.9,105.8,461.9,106.8z
			 M478.7,106.9c-1.6-0.4-2.1-1.3-2.1-2.3c-0.2,0.4-0.4,0.9-0.6,1.3c-1.4-0.4-1.4-1.9-2.3-2.7c-0.3,0.2-0.6,0.3-0.9,0.5
			c-0.6,1.9-1,2.7-2.1,2.6c0.2,0.4,0.3,0.8,0.3,1.4c-0.2,1.7-2.5,3.2-4.2,2.9c-3.3-0.6-4.3-2.4-3.5-6.7c1.6-0.1,2.9,1.2,4.5,1.3
			c-0.6-0.3-1.3-0.6-2-1c2.7,0,5,0.4,7.1-0.5c0,0,0-0.1,0-0.1c0.1-0.2,0.5-0.3,0.8-0.4c0,0,0.1,0.1,0.1,0.1c0.2-0.1,0.3-0.2,0.5-0.3
			c0.8-0.6,1.5,0.1,2.1,0.5c0.1,0.1,0.2,0.2,0.3,0.3c0.1-0.6,0.3-1.2,0.3-1.8C477.5,103.5,479.7,104.6,478.7,106.9z M479.5,162.6
			c0.7-0.5,0.4-2.1,1.7-1.7c0.8,0.2,0.9,1.3,0.6,1.9c-0.6,1.2-0.2,2.1,0.4,3.1C481.6,164.5,479.1,164.7,479.5,162.6z"/>
		<path class="st0" d="M575.3,186.4c1.7,0,1.7-1.7,0.5-2.8c-8.9-8.7-9.1-22-9.9-37.6c-0.2-2.9-0.3-14.6-0.4-29.3c-1.5,0-3.1,0-5.3,0
			c2-1.5,3.8-0.4,5.2-1.1c-0.2-28.9-0.3-68.5,0.1-75.8c0.3-5.6,0.8-10.9,1.6-15.5c-0.2-0.2-0.5-0.4-0.7-0.6
			c-0.3-0.4-0.6-0.8-0.9-1.2c-0.1-0.9-0.4-2.1,0.8-2.3c0.6-0.1,1.1-0.2,1.7-0.2c1.5-6.4,3.7-11,6.7-12.9c1-0.6,1.1-2.2-0.3-2.6
			c-1.9,0-43.1,0-43.1,0c-2.2,0-3,1.6-3.1,2.1c-0.3,1.1-0.7,2.3-1.1,3.7c2.1-1.3,5,1.3,6-3c0.5,2.2,0.6,3.4-0.2,4.8
			c-1.9-0.7-3.7-1.9-5.8-1.7c-2.1,7.4-5.1,18.5-8.7,31.4c1.9,0.5,3.6,0.1,5-1.9c-0.1,1.5-2.5,2.4-0.9,3.8c1.8,1.5,1.2,2.5,0.1,4.2
			c-1.8,2.6-1.4,3.1,1.9,3.7c0.5,0.1,1,0.1,1.4,0.7c2.9-9.6,4.9-16.4,5.7-18.7c0.2-0.6,1.1-0.3,1.1,0.3c0.1,5.7,0.1,13.7,0.1,13.7
			s0.3,24.8,0.5,49.7c0.2-0.2,0.5-0.3,0.7-0.5c1.1-0.7,2.7-0.6,3.1-2.5c0.2-1,1.6-0.7,2.4-0.1c0.2-1.1,0.7-1.8,1.9-1.3
			c0.4,0.2,0.9,0.9,0.8,1.1c-0.5,1.1-1.7,0.4-2.5,0.7c-0.2,2.3-1.2,3.6-3.7,4.4c-0.9,0.3-1.8,0.8-2.6,1.5c0.2,19.8,0.3,39,0.1,44.9
			c-0.1,2.7-0.1,5.3-0.3,7.9c1-0.6,2.6-0.3,4.9,0.1c-4.1,1.2-1.6,4.9-4.4,6.1c-0.2-1.2,0.1-2.6-0.7-3.6c-0.7,10.7-2.5,20.4-8.2,27.7
			c-0.8,1-1.1,2.3,1.1,2.4C531.9,186.1,567.4,186.2,575.3,186.4z M563.5,66.8c0.8-0.1,1.6,0.6,1.7,1.1c0.3,1.1-1,1.3-1.6,1.9
			c-0.5-0.3-1-0.7-1.4-1C562.3,68,562.2,66.9,563.5,66.8z M547.5,77.2c-0.5-0.3-1-0.4-1-0.6c-0.5-1.5-3.1,0.2-3-2.1
			c0-0.4,0.4-1.2,0.7-0.9C545.5,74.5,548,74.1,547.5,77.2z M543.8,65.1c0.1-0.5,0.5-0.7,1.1-0.8c0.7,0.1,0.5,0.8,0.6,1.4
			c0,0.5-0.2,0.9-0.8,0.7C544.1,66.2,543.6,65.9,543.8,65.1z M555.7,160.4c0.1,0,0.4,0.6,0.3,0.8c-0.5,0.7-1.2,0.6-1.9,0.3
			c-0.2-0.1-0.3-0.6-0.6-1.1C554.3,160.4,555,160.3,555.7,160.4z M553,65.3c-0.3,0.6-0.5,1.5-1.3,1.4c-0.9,0-1-0.9-1.1-1.6
			c-0.3-1.2,0.7-0.9,1.3-1C552.5,64.3,553.5,64.2,553,65.3z M548.6,46.3c0.8-0.1,1.6,0,1.8,0.8c0.2,0.7-0.1,1.5-1,1.6
			c-0.9,0.1-1.8,0.1-2.2-1.1C547.1,46.6,547.8,46.4,548.6,46.3z M544.7,58.6c1.5,0.1,1.2,1,1.1,2c0,0.2,0.4,0.4,0.7,0.6
			c1.6-1.8,3.4-2.5,6.1-1.4c-1.2,1.8-5.2,1.5-2.8,4.8c-1.9,0-2.3-1.3-3.2-1.8c-0.9-0.8-3.3,0.3-2.8-2.2
			C543.9,59.9,542.8,58.5,544.7,58.6z M542.8,56.9c1.3,0.6,0.5,2,0.6,3.1c-0.3,0-0.4,0.2-0.4,0.5c-1.5-0.7-2.9-1.4-4.5-2.1
			C539.5,56.3,541.2,56.2,542.8,56.9z M533.8,88.4c-0.5-1-0.3-2.1,0.9-2.2c1.3-0.1,0.3,1.2,0.6,1.8c0.2,0.4,0.2,0.9,0.5,2.3
			C534.7,89.2,534.1,88.9,533.8,88.4z M537.8,91.9c-1,0.2-1.4-0.6-1.1-1c0.9-1.4,2.2-2.4,3.7-2.9c0.6-0.2,1.3,0.7,1.1,1.2
			C540.9,91,539.6,91.9,537.8,91.9z M542.3,82.3c-0.8-0.1-0.9-0.8-0.9-1.4c0-0.8,0.7-0.9,1.4-0.8c0.3,0.3,1.3-0.1,1.2,0.8
			C543.7,81.8,543.2,82.4,542.3,82.3z M542.1,111.6c1,0,0.9,1,1.2,1.7c0.2,0.6-0.3,0.8-0.8,0.7c-0.7-0.2-1.4-0.5-1.4-1.5
			C541.4,112.1,541.7,111.6,542.1,111.6z M539.3,172.8c0.1-1.1,0.8-1.5,1.9-1.5c0.2,0.3,1.4-0.2,0.6,0.7c-0.5,0.6-0.4,1.9-1.6,1.9
			C539.6,173.9,539.2,173.4,539.3,172.8z"/>
	</g>
	<path class="st0" d="M686.7,168.5c-1.7-10.2-1.3-20.3-1.4-31c-0.2-16.6-0.6-40.1,0.7-71.3c0.1-1.2-0.7-1.5-1.2-1.5
		c-1.4,0-2.6,5.4-17.8,15.2c-0.8,0.5-1.5,1-2.2,1.4c-0.2,0.3-0.5,0.4-0.8,0.5c-4.5,2.9-7.4,4.6-9.2,5.7c0.1,0,0.3,0,0.4,0
		c1.4-0.1,2.8-0.7,4.2-1c0.6,0.3,0.7,0.9,0.5,1.5c-0.3,1.2,0.3,2.1,1.3,2c1.3-0.1,0.6-1.6,1.2-2.6c1.4,2.3,4.4,0.7,6.8,3.4
		c-3.5-0.8-4.8,2.1-7.3,2.3c-0.9-0.4-2.7,1.4-2.8-1.1c-0.4-1.2-0.7-2.4-1-3.4c-0.8-0.4-1.3,0.2-1.9,0.3c-1.5,0.3-2.6,0.2-3.3-0.4
		c-0.7,0.3-0.9,0.4-0.9,0.4c-1.6,0.8-1.7,1.6,0.2,3c4.5,3.2,4.9,14,4.9,44.4c0,2.8,0.3,12.8,0.3,19.7c0,1.2-0.6,2.3-1.7,2.9
		c-4.8,2.7-18.5,10-24.8,6.8c-5.7-2.9-4.5-14-4.6-28.4c-0.1-3.2-0.1-10.1-0.1-18.1h-0.1v-2.6c0.1-3.8,0.1-7.7,0.2-11.7
		c-0.8,0.4-1.9,0.5-2.9,0.6c-0.4-1.1-1.7-1.9-1.3-3.3c0.4,0,0.8,0,1.1,0.1c0.2,0.1,0.5,0.1,0.8,0.1c0.2-0.6,0.9-0.7,1.4-0.7
		c0.3,0,0.6,0.1,0.8,0.2c0-0.3,0-0.6,0-0.9c-0.4-0.4-0.7-0.8-0.8-1.2c-0.1-1,0.2-1.4,0.8-1.6c0.2-15.8,0.5-30.3,0.5-30.7
		c0-1.2-0.7-1.5-1.3-1.5c-1.5,0-4.4,5.7-20.9,16.5c-5.4,3.5-9.3,5.1-11,5.7c0.7,0.2,1,0.5,1,1.1c-0.1,1.4-1.3,1-2.1,1
		c-0.3,0-0.6-0.1-0.8-0.2c0.2,0.5,0.6,1,1.2,1.9c0.6,0.8,1.1,2,1.6,3.3c0.6,0.4,1.1,1,1.5,1.8c0.5,0.9,0.7,1.8,0,2.6
		c0,0.1-0.1,0.1-0.2,0.1c1,4.4,1.7,10,1.8,16.3c0.1,1,0.1,2,0.1,3.2v2.8c-0.1,2.5-0.1,5.1-0.1,8.1v0.3c0,2.8-0.1,5.8-0.1,9
		c-0.4,11.1-0.2,24.7-0.1,25.9c1.1,9.2,3.4,13.7,8,17.8c2,1.9,7.4,4.8,15,4.7c14.2-0.3,32.2-17,37.3-22
		c3.5,13.3,12.8,19.1,32.1,20.3c1.5,0,2.3-0.3,2.6-0.9c0.4-0.7,0.1-1.5-0.6-2.5C689.9,179.8,688,175.4,686.7,168.5z M619.5,102.7
		c0.4-0.1,0.7,0.2,0.6,0.5c-0.3,0.7-0.4,1.3-0.5,2c-0.1-0.5-0.3-1-0.9-1.7C618.4,103.2,619,102.7,619.5,102.7z M615.9,82.4
		c1.3-0.1,1.3,0.8,1.3,1.8c-0.1,0.9-0.5,1.5-1.3,1.4c-0.9-0.2-1.4-1-1.6-1.9C614.5,82.8,615.2,82.4,615.9,82.4z M606.4,113.3
		c0,2.7,2.7,3.2,4.7,5.2C606.8,118.6,605.9,117.5,606.4,113.3z M617.6,118.9c-1.1-0.2-1.4-1.1-1.3-2.1c0.1-0.5,0.7-0.9,1-0.6
		c0.6,0.6,1.1,1.5,1.7,2.4C618.4,118.7,617.9,118.9,617.6,118.9z M619.1,114c-1.2-0.3-2.3-0.9-2.1-1.4c0.4-0.7,0.3-1.5,0.2-2.3
		c-0.1,0.5-0.1,0.9-0.2,1.4c-1.3-0.7-2.3-1.4-3.1-2.1c-0.4,0.2-0.9,0.3-1.4,0.5l-0.1-0.1c0.6-0.4,0.3-1.1,0.3-1.7
		c-2-2.5-1.4-5.1,1.7-7.4c1-0.8,2.1-1,3.1-0.5c0.9,0.4,0.8,1.6,0.9,2.5c0.2,1.8-0.2,3.4-0.7,5.2c0,0,0,0,0,0
		c0.6-0.7,1.4-1.4,1.7-2.2C619.3,108.5,620,111.3,619.1,114z M622,123c-2.7-2.8-2.7-2.8-0.6-4.1v0c0,0,0,0,0,0s0.1-0.1,0.1-0.1
		l-0.1,0.1c0,0,0,0,0,0C621.2,120.3,622.6,121.5,622,123z M632.2,173.7c-0.2,0.8-0.8,1.2-1.6,1.2c-0.6,0-1-0.4-0.9-1.2
		c0.5-0.3,1-0.9,1.7-1.1C631.9,172.5,632.4,173.1,632.2,173.7z M671.7,89.9c-0.9,0-1.4-0.6-1.6-1.4c-0.1-0.6,0.3-0.8,0.8-0.8
		c0.8,0.1,1.4,0.6,1.6,1.4C672.6,89.8,672.2,89.9,671.7,89.9z M679.2,95.8L679.2,95.8C679.2,95.8,679.2,95.7,679.2,95.8
		c-0.9-0.3-1.7-0.7-2.3-1.2c-0.6,0-1.3,0.1-1.8,0.1c-0.5-0.1-0.8-0.5-0.8-1c0-0.1,0.1-0.3,0.2-0.4c0.4-0.4,1.1-0.5,1.3-0.1
		c0.3,0.6,0.7,1.1,1.2,1.5C677.8,94.5,678.7,94.6,679.2,95.8C679.2,95.7,679.3,95.8,679.2,95.8l0.1,0.1
		C679.3,95.9,679.2,95.8,679.2,95.8z"/>
	<path class="st0" d="M749.2,21.9c0.6-0.1,1.3-0.2,1.9-0.5c0.7-0.3,1.2-1,0.2-1.6c-4.9-2.6,1.9-6-0.1-6.5c-1-0.3-2.9,0.5-4.1-2.7
		c-0.6-1.6-0.4-2,0.1-5c-4.1-1.1-4.8-0.6-5.9-2.4c-0.8-1.2-1.1-1-6.7-3c-2,0.9-1.3,2.3-4.3,0.3c-0.3-0.2-0.8-0.3-1.4-0.5
		c-0.3,3.4-0.3,3.7-3.6,2.8c-1.1-0.3-2.2-0.5-3.1,0.3c-1.2,0.9-2.7,1.6-2.7,3.5c0,1.6-1.3,2-3.7,3.2c0.1,2,0.4,3.9-0.1,4.3
		c-1,0.7-1.1,2-1.9,2.8c-1.5,1.5-2.3,3.3-2.7,5.5c4.8,4.9,2.5,6.5,3,8c1.1,0.3,1.1,0.3,1.8,1.3c-0.6,1-1.2,2-1.7,2.9
		c0.2,1.4,0.5,2.7,0.4,3.9c-0.3,3.8,2.5,3.5,4.2,6.3c1.2,2,1.7,1.7,6.9,0c2.3-0.8,0.5-1,4.3-2.4c0.1-0.5,0.2-0.5-0.2-1.7
		c-0.8-2.4,0.7-3.4,2.9-3c0.6,0.1,1.3,0.4,1.8,0.6c0.8-0.6,1.4-1.1,1.6-1.9c0.3-1.5,1.5-2.3,2.8-2.2c2.2,0.1,4-1,5.8-1.4
		c1.6-4,0.5-2.5,4.1-6.1C748.6,25.1,747.5,23.3,749.2,21.9z M721.3,18.1c0.3-1.1,0.9-2.3,2.3-0.8c-0.3,1,0.3,1.3,1.1,1.3
		c1.4,1.5,1.3,3.5,1.7,5.3C721.8,22.5,720.5,21.1,721.3,18.1z"/>
	<g>
		<path class="st0" d="M779,3.8C779,3.8,779,3.8,779,3.8C779,3.8,779,3.8,779,3.8C779,3.8,779,3.8,779,3.8z"/>
		<path class="st0" d="M806,29.7c-0.5-0.5-0.7-0.3-2.4,0.2c-1.3-0.8-1.6-4.1,0.7-6.1c0.9-0.8,1.9-1.3,2.3-2.8c-3.7-3.6-4-2.2-3.3-7
			c-3.4-1.7-3-1.1-1.9-8c-0.9-0.6-1.7-0.9-1.9-2.1c-0.4-2.3-3.4-1.5-4.7-1.5c-0.3,0-0.5,0-0.8,0c0,0.1,0.1,0.2,0.1,0.3
			c0,0.5-0.4,0.7-0.9,0.4c-0.2-0.1-0.4-0.1-0.5-0.2c-0.1,0.1-0.2,0.2-0.3,0.3c-0.9,1.2-2.3,1.4-3.5,1.9c-1.6,0.7-2.2-0.1-4.4-1.5
			c-1.4,2.6-2.5,2.4-3.4,1.7c-1,2.4-2,3.1-4.2,3.1c-0.1,0-0.1,0.1-0.2,0.1c-3.2,2.3-4.9,0.8-5.9,1.2c-0.6,4.7,0.4,5-3.2,6.4
			c1.2,2.3,2.4,3.6,0.4,5.3c-1.1,0.9-1.1,1.8-0.7,2.8c0.3,0.7,0.7,1.5,1.2,2c1.7,1.6,0.8,3,1.3,3.4c1.3,1.1,1.1,2.9,1.5,4.2
			c1.4,1.1,3,1.6,4.6,2.1c3.7,1.3,3.9,5.1,2.2,6.2c-0.8,0.6-0.6,1.1,0.1,1.7c4-1.8,5.6-5.3,7.2-3c0.8,1.1,1.9,1.3,2.9,1.8
			c0.8,0.4,1.7,0.3,2.4-0.5c4.3-4.4,4.6-2.9,6.6-2c1.8,0.8,1.9-1.5,2.2-2.6c0.5-1.7,2.3-0.6,3.4-0.1c1.2-0.3,2.1-1.2,3.3-1.2
			c0.9,0,1.5-1.2,1.4-2.2C807.2,31.7,807.5,31,806,29.7z M789,18.4c-0.3-0.2-1.3-0.6-1.4-1.1c-0.1-0.9,1-0.9,1.6-1.1
			c0.8-0.2,1.6-0.1,1.5,1C790.8,18.1,790.3,18.6,789,18.4z"/>
	</g>
	<g>
		<path class="st0" d="M722.7,96.3c2.8,0,4.9,1.9,7.7,1.1C726.2,92.6,726.2,92.6,722.7,96.3z"/>
		<path class="st0" d="M739.3,93.7c2.4-0.1,4.3-0.6,5.6,1.7c0-1.3,0-2.5,0-3.6c-1.7,0.1-3.2-1.4-4.8-1.7c-0.2,0-0.4-0.9-0.3-1.2
			c0.1-0.4,0.6-0.7,1.4-0.6c1.3,2.1,2.4,0.3,3.6-0.4c0-2.5,0-4.2,0-4.8c0-1.5,0.1-3.1,0.1-4.7c-0.2,0.1-0.5,0.1-0.8,0
			c-0.7-0.2-1.8-0.8-1.8-1.9c0-0.5-0.1-1.1,0.2-1.3c0.8-0.6,0.8,0.3,1.2,0.7c0.4,0.5,0.9,0.4,1.3,0.1c0.2-4.1,0.3-7.9,0.4-10.2
			c0-1.2-0.7-1.5-1.2-1.5c-2,0-2.1,3.9-21.8,17.8c-5.2,3.6-9.3,6-11.4,7.2c-1.4,0.8-1.6,1.8-0.7,3.1c2.5,3.5,4.8,10.9,5.3,17.7
			c0.2,1.6,0.4,3.4,0.5,5.4c0,0,0.1,17,0.3,34.9c0.2,0,0.4,0,0.6,0c1.5,0.2,2,1,1.8,2c-0.2,1.3-0.9,2.3-2.3,2.2
			c0.1,17.5,0.2,34.8,0.1,36.7c-0.5,11.2,2.5,35.9-25.7,43.3c-2.4,0.6-2.5,1.9-0.6,2.6c24.9,6,55.3-7.7,55.9-44c0-0.4,0-0.9,0-1.3
			c-0.1-6.3-1-69-1.3-96.4C742.8,95.7,741.2,95.3,739.3,93.7z M743.1,120.8c0.1,0,0.2,0.2,0.3,0.3c-0.1,0.1-0.2,0.1-0.3,0.2
			c-0.1-0.1-0.2-0.2-0.3-0.3C742.9,120.9,743,120.8,743.1,120.8z M741.3,119.8c0.1,0,0.2,0.2,0.3,0.3c-0.1,0.1-0.2,0.2-0.3,0.2
			c-0.1,0-0.2-0.2-0.3-0.3C741,120,741.1,119.8,741.3,119.8z M722.5,85.6c1.8,0.8,3.1-0.9,4.7-0.7c0,0,0,0,0.1,0c0,0,0,0,0,0
			c-0.3-1.4-1.9-0.4-2.5-1.3c1.1-1.3,2.4-0.5,3.6-0.3c0.6,0.1,1.6,0.6,1,1.6c-0.5,0.8-1.4,0-2.1,0.1c0,0,0,0,0,0.1c0,0-0.1,0-0.1,0
			c-1.1,0.8-2.6,1.5-3.1,2.6c-0.8,1.6-0.8-0.5-1.4-0.1c-0.4,0.2-1.7,0.7-1.6-0.7C721.2,86.1,721.9,85.4,722.5,85.6z M716.6,92.1
			c0-0.3,0.7-0.9,0.9-0.9c1.6,0.3,1.2,1.8,1.9,3.3C717.9,93.7,716.4,94,716.6,92.1z M725.5,134.6c-0.7,0.5-1.2,0.1-1.3-0.6
			c-0.4-2-1.9-3.3-3-4.9c-0.6-0.9-0.4-1.3,0.1-2c0.6-0.7,1.1-0.1,1.6,0.2c2.1,1.4,1.6,4.6,4,5.8c0.1,0,0.1,0.3,0.2,0.5
			C726.6,133.9,726.1,134.2,725.5,134.6z M733.9,132.9c-0.8,0.1-1.1-0.6-0.9-1.2c0.5-1.5,0-3.1,0.7-4.6c0.3,1.5,0.6,2.9,0.9,4.4
			C734.7,132.1,734.7,132.8,733.9,132.9z M735.9,95.4c-3.3,1.1-3.4,1.1-4.1,4.3c-0.2,0.9-1.3,0.7-1.8,1.2c0.1,0.3,0.2,0.6,0.2,1
			c0,0.4,0.3,0.5-0.3,0.4c-0.1,0-0.1-0.3-0.1-0.4c-0.1-0.5,0.1-0.7,0.3-0.9c-0.8-2-3.6,0.1-4.6-1.6c-1.3-2.3-4.1,0.3-5.6-1.7
			c0.4-1.3,2.7-0.6,2.7-2.3c0-1.4-2.2-1.5-1.9-3c0.3-0.7,0.8-0.5,1.1-0.3c1.4,1,2.6,1.7,4.2-0.1c0.5-0.6,2.1-0.2,3.3-0.2
			c0.9-1.1-0.1-2-0.3-2.9c-0.3-1.5,0.5-1.8,1.7-1.9c-0.4-0.6-0.5-1.2,0-1.6c0.1-0.1,0.9,0.2,1.1,0.5c0.6,0.7,0,1-0.6,1.1
			c-1,1.2-0.6,2.5,0.1,3.4c0.8,1-0.1,1.7-0.1,2.5c1.6-0.3,3,2,4.8,0.4c0.2-0.2,0.9,0.1,0.9,0.7C736.8,94.6,736.6,95.1,735.9,95.4z
			 M745,134.7c-0.5,0.7-1.2,0.3-1.6-0.4c-0.4-0.2-0.8-0.5-1.2-0.7h0c-1.7-0.4-3.8,0.4-5-2.1c2.3-0.5,4.1-0.1,5.6,1.5
			c0.4,0.2,0.8,0.5,1.2,0.7h0C744.6,133.9,745.4,134.2,745,134.7z"/>
	</g>
	<path class="st0" d="M801.2,163.1c0-1.4,0-3.7-0.1-6.6c1.1-2.5,0.9-6,0.8-8.6c1.9-3.5,1.4-6.9,0.5-10.5c-0.9-3.6-0.1-1.8,2.6-0.5
		c0.5-0.5,1.1-1,1.6-1.4c0.6-1.4-1.9-3.5-3-6.6c-1.3-3.4-1.8-7.7-3.1-9.7c0-2.2-0.1-4.4-0.1-6.4v-3.9c-0.1-14.4-0.2-27.3-0.2-28.5
		c0-1.4,0.1-2.9,0.1-4.3c0.1-0.7,0.1-1.3,0.1-1.9c0-1,0.1-1.9,0.1-2.8c0,0,0,0,0-0.1c0.1-0.9,0.1-1.6,0.1-2.4c0.1-1,0.1-1.7,0.1-2.4
		c0-1.2-0.7-1.5-1.2-1.5h-0.1c-0.2,0-0.5,0.1-0.8,0.3c0,0.1-0.1,0.1-0.2,0.1l-0.8,0.8c-2.9,2.5-8.9,8.8-21.7,16.6
		c-4.5,2.7-7.9,4.3-7.9,4.3c-1.9,0.8-2.5,1.4-2.5,2.1c-0.3,2,6.1,5.8,5.9,23.7c0.1,4.4,0.1,12.6,0.2,20.7c-0.4,1-1.2,1.9-2.8,2.4
		c2,2.8,2.2,5.3,0.7,8.3c-0.7,1.4-1.1,2.1-1.9,3.4c-0.4,0.7,2.1,1.4,2.5,2.8c0.4,1.5-1.3,3.7-1,4c4.1,3.7-0.1,7.3,0.6,10.2
		c0.3,1.3,1.3,1.6,2.5,1.7c0.3,0.7,0.7,1.3,1.1,1.9c-0.4-0.1-0.8-0.1-1.1-0.1l-1.4-0.6c0,0-2.4-0.4-2.3,0.1c0.1,0.5,3,0.5,1.7,2.2
		c-0.7,0.9,0.5,1.7,1.7,2.4c0.9,0.5,2.1,2,2.3,2.1c0.3,0.2,0-2.3-0.2-2.6c-0.2-0.3-1.4-0.6-1.9-1.5s0.7-0.2,1.7-1c0,0,0,0,0,0
		c0.5,0.6,1.1,1.2,1.7,1.8c-0.1,2.3-0.3,5.5-0.5,9.1c-0.2-0.4-0.3-0.9-0.4-1.5c-0.1-2.1-2.2-1.1-2.3,0c-0.2,2.4,1.4,2.8,2.6,2.8
		c0,0.6-0.1,1.1-0.1,1.7c-0.1,2.1-2,3.3-2.1,5.6c-0.1,2.7,0.6,4.8,1.1,7.2c0.2,0,0.5,0,0.7,0.1l-0.6,1.4c0.3,0.2,1,1.4,1.2,1.7
		c0.3,0.3,1.3-1.5,1.4-1.2c0.1,0.4,0.1,0.8,0.1,1.1c0,0.4-0.1,0.7-0.3,1.1c-0.1,0.3-0.4,0.5-0.6,0.8c0,0,0,0,0,0c0,0,0,0,0,0
		l-0.6,0.4c0,0-0.1,0-0.1,0.1c-0.3,0.1-0.6,0.3-0.9,0.3c-0.2,0-0.5-1.5-0.7-1.5c-0.1,1.7-0.5,7.1,0,9.1c0.4,1.5,1.9,0.7,2,2.1
		c0.2,2.9-1.1,5.1-0.9,6.4c-0.3,1.9-0.2,3.8,0,5.7c0,0,0.1,0.1,0.1,0.1c0.3,0.3,0.4,0.6,0.5,1c0.3,1,0.6,1.9,1,2.8l-0.2-0.4
		c0.2,0.4,0.3,0.8,0.3,1.3c0,0.1,0,0.3-0.1,0.4c0.1,0.4,0.1,0.9,0,1.3c-0.1,0.6-0.6,1.1-1.1,1.5c-0.1,2.6-0.4,5.1-0.2,4.9
		c0.3-0.2,0.7,1.1,0.8,1.3c0.5-1.1,0.9-2.1,1.5-3.2c0,2,0.1,3.9,0.3,5.9c2.6,4.1,1.2,9.3,3.4,13.6c0.1,2.8,0.1,5.6-0.3,8.4
		c-0.3,2.8-0.3,5.6-0.2,8.5c1.2,6,2.1,13.6,2.4,19.1c0.1,2,0,3.7-0.4,4.8c0.2,1.9,0.8,8.5,0.9,9.7c0.2,2.5,1,7.7,1.1,4
		c0.1-3.7,0-2.6,0-6.1c0.2,1.1,0.2,2.6,0.8,2.8c0.7,0.1,0.5-0.8,0.6-1.2c0.1-0.5-0.3-2.8-0.3-3.1c-0.1-1.1,0.1-4.4,0.5-2.3
		c0.4,2,0.5,1.7,0.8,0.1c0.1-0.7,0-1.9,0-2.2c-0.2-2-0.4-2.3-0.8-0.5c-0.1-3.5,2.1-6,2.2-9.1c0.1-4.2-0.9-2.1-2.1-3.7
		c1.7-1.6,1.7-3.7,2.2-6.8c0.4-2.7,1.2-7.3,1.4-11.1c-0.4-0.6,0.9-1.6,1-2.3c-0.1-0.1-1.5,0-1.6-0.1c0,0,0,0,0,0c0,0,0,0,0-0.1
		c-0.1-0.2-0.2-0.5-0.3-0.7c0,0,0-0.1,0-0.1c0-0.2-0.1-0.6-0.1-0.8c0,0,0,0,0-0.1c0-0.1,0-0.1,0-0.2c0-0.3,0.1-0.6,0.1-0.9
		c0,0,0-0.1,0-0.1c0-0.3,0.1-0.6,0.2-0.8c0.1-0.3,0.3-0.6,0.5-0.8c0,0,0,0,0,0c0.1-0.2,1.1-1.8,1.2-1.9c0.1-2.2-0.6-3.1-0.4-5.4
		c0.3-2.8,0.4-6,0.3-9c1-1.8,1.9-2,2.6-0.6c1.1,2.1,0.9-2.5,0.9-2.5s-1.5-2.1-2-2.3c-0.5-0.1-0.5-3.2-0.5-3.2s0.9-1.1,0.8-1.9
		c-0.1-0.4-0.7-1.4-1.3-2.3c0.2-2.2,0.4-4.4,0.6-6.6l1.5-0.7c0,0,1.3-3.2-0.3-3.5c-0.1,0-0.2,0-0.3-0.1c0.2-1.8,0.1-3.7,0.1-5.3
		c-0.1-2.6-0.3-5,2.1-6.3c-0.1-0.2-0.3-0.7-0.3-0.9c-0.5-4,1.1-0.5,2.5-2.9c0.1-4.1,3.3-9.3-0.1-12.6c0.3-0.2,0.5,0,0.8-0.3
		c-0.2-1.2-0.4-2.4-0.5-3.5c-1.1-0.3-2.1-0.7-3.2-0.3c-0.1-1-0.9-1.6-0.7-2.7c0.4-2.6,1.5-0.5,3-1.5c0.1-1.5,3.1-3.5,3-4.7
		c-0.1-0.7-0.1-1.3-0.2-2c0.8,0,1.4-0.1,1.8-0.3c2.3-1.1-4.3-5.9,0.7-4.9C804.1,171.1,801.2,165.5,801.2,163.1z M789.3,142.6
		c0.2,1.4-1.1,1.2-1.8,1.5c1.2-0.6,0.4-0.8-0.2-1.1c0.4-1.7-0.8-2.7-1.8-4C788.2,138.8,789,140.5,789.3,142.6z M785.1,147.9
		c-0.4,0-0.7-0.3-0.8-0.7c-0.1,0.1-0.1,0.3-0.2,0.4c-0.7,0.4-1,0.2-1.3-0.1c-1.4-1.3-3.1-2.4-2-4.6c0.3-0.6,1-0.8,1.4-0.6
		c1.6,1,2.5,2.3,2.4,3.8c0.5-0.5,1.3-0.3,1.9-0.5l0.3,0.1C786.9,146.9,786.6,147.9,785.1,147.9z M788.2,181.9
		c-1-0.1-1.6-0.8-1.6-0.7c0.2-2,0.8-2.5,1.5-2.4c1,0.1,1.4,1.1,1.5,2C789.8,181.8,788.9,182,788.2,181.9z"/>
	<path class="st0" d="M870.8,185.4c0.2-0.6,0-1.6,1.2-1.3c1,0.3,2.2,0.5,2.2,2c0,0.5-0.2,0.9-0.5,1.3c14.3-1.6,22.2-8.3,23.5-11.2
		c0.7-1.6,0.3-1.4-2.4-1.4c-16.2,0.2-39.5-10.4-46.4-38.1c-1.3-5.1-2.6-10.7-3.2-17.3c-0.5-5.1-0.2-8.6-0.2-9.5
		c-0.3-10.2,1.5-19.5,4.5-26c-0.8,0-1.7-0.4-3.1-1.3c1.3-1.4,2.8-1.5,4.3-1.2c2.3-4,5.1-6.7,8.3-7.3c6.4-1.4,12.9,1.5,13.5,10.8
		c0.3,5.3-3.2,14.1,0.7,22.4c1.7,3.5,7.5,7.9,14.2,7.1c1.3-0.1,2.4-0.4,3.5-0.8c-1-0.7-2.3-1.4-2.8-3.6c1.6,1.4,3.6,1.6,3.8,3.2
		c7.6-3,10.1-11,7.6-20h0c-4.6-16.5-20-27.4-37.3-26.8c-24,0.8-46.5,29.1-44.5,68.2c0,1.1,0.1,2.2,0.2,3.4
		c1.1,10.3,4.3,21.1,10.9,30.5c10.1,14.4,25.8,20,41.5,19.2c0.5,0,0.9-0.1,1.4-0.1C871,187.1,870.7,186.3,870.8,185.4z M836.4,111
		c0.9,0.1,1.6,0.6,1.9,1.5c0.2,0.7-0.4,1-0.9,1c-0.9,0.1-1.9,0.1-2.2-1C834.9,111.7,835.7,111.4,836.4,111z M833,143.9
		c-2.7,0.2-3.6-1.5-3.9-3.8c0.1-0.4,0.2-0.7,0.3-1.1c1.5,0.1,2.6-0.7,3-1.9c0.7-1.8,2.2-1.6,3.7-1.8c0.7,0.1,1.5,0.2,2.2,0.3
		c0.1,1.7-0.2,3.3-0.7,4.9C836.8,143,835.2,143.7,833,143.9z M841.9,149.5c-0.3,1.2-0.9,2.8-2.9,2.8c-2.4,0-1.8-1.9-2.2-3.2
		c0-1.1,1.6-1.3,1.4-2.5c0.3-0.8-0.8-2,0.7-2.3c0.9-0.2,2.2-0.1,2.5,0.8C841.7,146.5,842.2,148.2,841.9,149.5z M844.2,96.1
		c-0.7-0.4-1.5-0.8-2.2-1.1c-0.1-2.7,1.1-2.7,2.9-1.4c0,0.8,0,1.5,0,2.3C844.5,95.7,844.3,95.8,844.2,96.1z M850.2,146.9
		c-0.7,1.2-1.9,0.8-2.9,0.8c-0.3,0-0.7-0.3-1-0.4c0.2-0.3,0.2-0.7,0.5-1c1-1.2,2.1-1.3,3.3-0.4C850.2,146.1,850.3,146.7,850.2,146.9
		z M868.7,184.7c-0.4,0-0.8-0.1-1.1-0.1c-0.2-0.1-0.3-0.1-0.5-0.2c-0.4-0.3-0.4-0.5,0.2-0.6c1.1-0.1,2.2,0,3.2-0.2
		c0.8-0.2,1.2-1.6,2.4-0.6C871.9,184.5,869.9,183.7,868.7,184.7z"/>
</g>
</svg>
